<?xml version="1.0" encoding="UTF-8"?>
<svg width="128px" height="128px" viewBox="0 0 128 128" version="1.1" xmlns="http://www.w3.org/2000/svg" xmlns:xlink="http://www.w3.org/1999/xlink">
    <!-- Generator: Sketch 52.5 (67469) - http://www.bohemiancoding.com/sketch -->
    <title>Artboard@1x</title>
    <desc>Created with Sketch.</desc>
    <defs>
        <linearGradient x1="9.3675865%" y1="-45.5650949%" x2="41.592565%" y2="349.585431%" id="linearGradient-1">
            <stop stop-color="#FFFFFF" offset="0%"></stop>
            <stop stop-color="#DCDCDC" offset="100%"></stop>
        </linearGradient>
        <linearGradient x1="50%" y1="0%" x2="50%" y2="100%" id="linearGradient-2">
            <stop stop-color="#96DA1E" offset="0%"></stop>
            <stop stop-color="#80DB2F" offset="49.8509754%"></stop>
            <stop stop-color="#5DB30D" offset="100%"></stop>
        </linearGradient>
        <linearGradient x1="50%" y1="-2.48949813e-15%" x2="50%" y2="100%" id="linearGradient-3">
            <stop stop-color="#96DA1F" offset="0%"></stop>
            <stop stop-color="#428207" offset="100%"></stop>
        </linearGradient>
    </defs>
    <g id="Artboard" stroke="none" stroke-width="1" fill="none" fill-rule="evenodd">
        <rect id="Rectangle" fill="url(#linearGradient-1)" x="-4" y="-4" width="158" height="246"></rect>
        <g id="Group" transform="translate(19.000000, 21.000000)" fill="url(#linearGradient-2)" stroke="url(#linearGradient-3)">
            <g id="black-horse-head-in-a-shield-svgrepo-com">
                <path d="M84.7997771,10.5271554 L84.800139,10.5274891 C86.0187265,11.6522937 86.4375936,14.9595892 86.178007,20.5217352 C85.7534115,29.4469002 83.3563383,39.1854867 78.2952061,49.285543 C71.6599777,62.5268843 60.981381,75.2315535 45.5736115,86.9505609 L43.6950397,88.3727483 L43.4122601,88.2204863 L41.0346159,86.9333273 C24.1733487,74.1093132 13.0053106,60.1448017 6.5977111,45.6609505 C1.96493871,35.1889499 0.209696193,25.4278698 0.392350369,17.0203245 C0.492906832,12.329668 0.875661311,11.1473258 2.18128302,10.2442666 C12.3637958,3.30861763 27.1681611,-0.5 43.8928184,-0.5 C61.4673894,-0.5 77.506075,3.80806546 84.7997771,10.5271554 Z" id="Shape"></path>
            </g>
        </g>
        <g id="thin-target-svgrepo-com" opacity="0.375714" transform="translate(44.000000, 40.000000)" fill="#000000">
            <ellipse id="Oval" cx="18.9192319" cy="19.0545852" rx="2.54906012" ry="2.57160217"></ellipse>
            <path d="M18.0834882,38.1730799 L19.7549756,38.1730799 C20.4473057,38.1730799 21.0085912,37.6068309 21.0085912,36.9083783 L21.0085912,34.7510502 C22.3866072,34.5661087 23.7284773,34.1972374 25.0174031,33.647303 C26.8830338,32.8511311 28.5581149,31.7119722 29.9961791,30.2613594 C31.4341179,28.8106623 32.5633748,27.120768 33.3524005,25.2385547 C33.8975561,23.9382727 34.2632358,22.5844939 34.4465144,21.1942917 L36.5849318,21.1942917 C37.2772619,21.1942917 37.8385474,20.6280427 37.8385474,19.9295901 L37.8385474,18.2433212 C37.8385474,17.5448687 37.2772619,16.9786196 36.5849318,16.9786196 L34.4464308,16.9786196 C34.2631522,15.5884595 33.8974725,14.2346807 33.3523169,12.9343567 C32.5631659,11.0522277 31.4340344,9.3623755 29.9960955,7.91167839 C28.5581149,6.46098129 26.8830755,5.32178021 25.0173195,4.52573484 C23.7283937,3.97575825 22.3864819,3.60684478 21.0085076,3.4219454 L21.0085076,1.26470165 C21.0085076,0.566206927 20.4472221,0 19.754892,0 L18.0834046,0 C17.3910745,0 16.829789,0.566206927 16.829789,1.26470165 L16.829789,3.42198755 C15.4518148,3.60688694 14.1099029,3.9758004 12.8209772,4.52577699 C10.9553883,5.32186452 9.28034893,6.46102345 7.84236829,7.91172055 C6.40438766,9.36241765 5.27517254,11.0522698 4.48610511,12.9343988 C3.94094948,14.2346807 3.57526982,15.5885017 3.39199123,16.9786617 L1.25361557,16.9786617 C0.561285478,16.9786617 0,17.5449108 0,18.2433634 L0,19.9296322 C0,20.6281691 0.561285478,21.1943339 1.25361557,21.1943339 L3.39199123,21.1943339 C3.57526982,22.5845361 3.94094948,23.9383149 4.48610511,25.2386811 C5.27521432,27.1208101 6.40438766,28.8106201 7.84236829,30.2614016 C9.28034893,31.7121408 10.9553883,32.8513419 12.8210607,33.6473451 C14.1099865,34.1972795 15.4518984,34.5662352 16.8298726,34.7510924 L16.8298726,36.9084205 C16.8298726,37.606873 17.3911581,38.1730799 18.0834882,38.1730799 Z M10.7972238,27.2803733 C9.12870323,25.5971397 8.03751445,23.4871115 7.62219161,21.1944182 L9.43358254,21.1944182 C10.1259126,21.1944182 10.6871981,20.6281691 10.6871981,19.9297166 L10.6871981,18.2434477 C10.6871981,17.5449951 10.1259126,16.9787461 9.43358254,16.9787461 L7.62214982,16.9787461 C8.03751445,14.6860949 9.12870323,12.5759824 10.797182,10.8927488 C12.4656607,9.20947307 14.5572347,8.1086346 16.8298308,7.6896811 L16.8298308,9.51713282 C16.8298308,10.2156275 17.3911163,10.7818345 18.0834464,10.7818345 L19.7549338,10.7818345 C20.4472639,10.7818345 21.0085494,10.2156275 21.0085494,9.51713282 L21.0085494,7.6896811 C23.2811455,8.10871891 25.3727195,9.20955738 27.0411983,10.8927488 C28.709677,12.5759824 29.8008658,14.6860949 30.2161468,16.9787461 L28.4048395,16.9787461 C27.7125094,16.9787461 27.1512239,17.5449951 27.1512239,18.2434477 L27.1512239,19.9297166 C27.1512239,20.6281691 27.7125094,21.1944182 28.4048395,21.1944182 L30.2162304,21.1944182 C29.8009494,23.4871115 28.7097188,25.5971819 27.0412818,27.2803733 C25.3728449,28.9635647 23.2812291,30.0644454 21.008633,30.4834832 L21.008633,28.6559893 C21.008633,27.9575367 20.4473475,27.3912876 19.7550174,27.3912876 L18.08353,27.3912876 C17.3911999,27.3912876 16.8299144,27.9575367 16.8299144,28.6559893 L16.8299144,30.4834832 C14.5572765,30.0644454 12.4656607,28.963649 10.7972238,27.2803733 Z" id="Shape" fill-rule="nonzero"></path>
        </g>
    </g>
</svg>